<svg data-v-423bf9ae="" xmlns="http://www.w3.org/2000/svg" viewBox="0 0 541 90" class="iconLeftSlogan"><!----><!----><!----><g data-v-423bf9ae="" id="19627111-dd8d-4fdb-bf92-c3916c772d2c" fill="white" transform="matrix(4.325882939406962,0,0,4.325882939406962,139.39649202652893,-13.323718169660452)"><path d="M5.24 3.78L1.48 3.78L1.48 14L5.24 14C8.15 14 10.46 11.94 10.46 8.89C10.46 5.87 8.16 3.78 5.24 3.78ZM5.24 13.06L2.58 13.06L2.58 4.72L5.24 4.72C7.41 4.72 9.34 6.23 9.34 8.89C9.34 11.54 7.41 13.06 5.24 13.06ZM15.16 6.58C13.44 6.58 12.22 7.56 12.12 9.02L13.12 9.02C13.17 8.18 13.97 7.49 15.12 7.49C16.41 7.49 17.16 8.16 17.16 9.67L17.16 9.94L14.90 9.93C12.98 9.93 11.83 10.79 11.83 12.01C11.83 13.27 12.88 14.14 14.22 14.14C15.51 14.14 16.53 13.55 17.29 12.96L17.50 14L18.19 14L18.19 9.67C18.19 7.70 17.09 6.58 15.16 6.58ZM12.87 12.00C12.87 11.19 13.58 10.79 14.91 10.79L17.16 10.79L17.16 12.11C16.41 12.70 15.46 13.22 14.43 13.22C13.58 13.22 12.87 12.78 12.87 12.00ZM21.62 3.08L20.57 3.08L20.57 14L21.62 14ZM24.67 5.10C25.10 5.10 25.47 4.73 25.47 4.27C25.47 3.85 25.10 3.50 24.67 3.50C24.22 3.50 23.87 3.85 23.87 4.27C23.87 4.73 24.22 5.10 24.67 5.10ZM25.16 6.72L24.11 6.72L24.11 14L25.16 14ZM31.36 6.58C30.17 6.58 29.25 6.99 28.62 7.78L28.62 3.08L27.62 3.08L27.62 14L28.34 14L28.55 12.87C29.18 13.69 30.07 14.14 31.35 14.14C33.33 14.14 34.96 12.46 34.96 10.33C34.96 8.23 33.32 6.58 31.36 6.58ZM31.28 13.23C30.00 13.23 29.16 12.61 28.66 11.61L28.66 9.10C29.13 8.13 29.99 7.49 31.28 7.49C32.66 7.49 33.89 8.72 33.89 10.33C33.89 11.96 32.68 13.23 31.28 13.23ZM36.32 10.33C36.32 12.45 37.90 14.14 40.12 14.14C42.34 14.14 43.92 12.45 43.92 10.33C43.92 8.25 42.34 6.58 40.12 6.58C37.90 6.58 36.32 8.25 36.32 10.33ZM37.35 10.36C37.35 8.76 38.50 7.49 40.12 7.49C41.73 7.49 42.87 8.76 42.87 10.36C42.87 11.94 41.73 13.23 40.12 13.23C38.50 13.23 37.35 11.94 37.35 10.36ZM49.32 6.58C48.55 6.58 47.68 6.97 46.75 7.76L46.56 6.72L45.82 6.72L45.82 14L46.86 14L46.86 8.75C47.77 7.98 48.51 7.59 49.13 7.59C49.45 7.59 49.73 7.64 49.97 7.73L50.09 6.71C49.88 6.64 49.63 6.58 49.32 6.58ZM55.55 14L56.64 14L56.64 3.78L55.55 3.78ZM58.42 8.83L62.71 3.78L61.39 3.78L57.41 8.54L57.41 9.21L61.61 14L63 14ZM66.22 5.08C66.60 5.08 66.93 4.76 66.93 4.35C66.93 3.98 66.60 3.67 66.22 3.67C65.83 3.67 65.52 3.98 65.52 4.35C65.52 4.76 65.83 5.08 66.22 5.08ZM68.71 5.08C69.10 5.08 69.43 4.76 69.43 4.35C69.43 3.98 69.10 3.67 68.71 3.67C68.32 3.67 68.00 3.98 68.00 4.35C68.00 4.76 68.32 5.08 68.71 5.08ZM63.69 10.33C63.69 12.45 65.27 14.14 67.49 14.14C69.71 14.14 71.29 12.45 71.29 10.33C71.29 8.25 69.71 6.58 67.49 6.58C65.27 6.58 63.69 8.25 63.69 10.33ZM64.72 10.36C64.72 8.76 65.87 7.49 67.49 7.49C69.10 7.49 70.24 8.76 70.24 10.36C70.24 11.94 69.10 13.23 67.49 13.23C65.87 13.23 64.72 11.94 64.72 10.36ZM77.46 6.58C76.30 6.58 75.24 6.99 74.12 7.78L73.95 6.72L73.19 6.72L73.19 14L74.23 14L74.23 8.65C75.22 7.98 76.29 7.50 77.20 7.50C78.30 7.50 78.93 8.12 78.93 9.30L78.93 14L79.98 14L79.98 9.25C79.98 7.50 79.03 6.58 77.46 6.58ZM82.91 5.10C83.34 5.10 83.71 4.73 83.71 4.27C83.71 3.85 83.34 3.50 82.91 3.50C82.46 3.50 82.11 3.85 82.11 4.27C82.11 4.73 82.46 5.10 82.91 5.10ZM83.40 6.72L82.35 6.72L82.35 14L83.40 14ZM91.91 6.72L91.74 7.87C91.11 7.03 90.17 6.58 89.00 6.58C86.95 6.58 85.32 8.20 85.32 10.32C85.32 12.46 86.94 14.07 89.03 14.07C90.19 14.07 91.06 13.65 91.67 12.87L91.67 13.71C91.67 15.11 90.54 16.06 89.11 16.06C87.98 16.06 87.02 15.57 86.86 14.80L85.85 14.80C86.14 16.10 87.42 16.95 89.11 16.95C91.13 16.95 92.64 15.64 92.64 13.71L92.64 6.72ZM89.07 13.17C87.61 13.17 86.38 11.91 86.38 10.32C86.38 8.72 87.61 7.49 89.07 7.49C90.27 7.49 91.14 8.13 91.60 9.09L91.60 11.56C91.11 12.56 90.27 13.17 89.07 13.17Z"></path></g><!----><g data-v-423bf9ae="" id="d4ec73a8-a22e-413b-8562-01fba4bb9f7c" transform="matrix(2.5919209008514144,0,0,2.5919209008514144,-1.0649006852896719,-19.196166428965938)" stroke="none" fill="white"><path d="M17.422 36.759a.995.995 0 0 1-.564-.175L1.167 25.825a1 1 0 0 1 0-1.65l15.69-10.759a1 1 0 0 1 1.131 1.649L3.5 25l14.488 9.934a1 1 0 0 1-.566 1.825zM32.578 36.759a1.001 1.001 0 0 1-.566-1.826L46.499 25l-14.487-9.934a1 1 0 0 1 1.131-1.649l15.69 10.759a1.001 1.001 0 0 1 0 1.65l-15.69 10.759a1.01 1.01 0 0 1-.565.174zM20.557 41.697a1 1 0 0 1-1.9-.625l10.787-32.77a1.002 1.002 0 0 1 1.901.626L20.557 41.697z"></path></g><!----><g data-v-423bf9ae="" id="2143376e-dc21-438b-8ec3-b35756452540" fill="white" transform="matrix(1.3607573423857153,0,0,1.3607573423857153,145.62190404717438,57.14240958512609)"><path d="M6.71 3.70L9.21 11.48L10.40 11.48L13.29 2.21L12.18 2.21L9.80 10.00L7.31 2.21L6.10 2.21L3.61 10.00L1.23 2.21L0.13 2.21L3.01 11.48L4.20 11.48ZM28.36 3.22L28.36 2.21L21.55 2.21L21.55 11.48L28.36 11.48L28.36 10.47L22.60 10.47L22.60 7.35L27.75 7.35L27.75 6.33L22.60 6.33L22.60 3.22ZM42.90 6.75C43.55 6.45 44.14 5.85 44.14 4.66C44.14 3.54 43.40 2.21 41.22 2.21L37.06 2.21L37.06 11.48L41.45 11.48C43.57 11.48 44.62 10.43 44.62 9.04C44.62 7.66 43.68 7 42.90 6.75ZM38.11 3.21L41.33 3.21C42.60 3.21 43.09 3.98 43.09 4.75C43.09 5.88 42.18 6.36 41.22 6.36L38.11 6.36ZM41.57 10.49L38.11 10.49L38.11 7.31L41.45 7.31C42.92 7.31 43.57 8.09 43.57 8.96C43.57 9.93 42.84 10.49 41.57 10.49ZM67.21 2.21L63.31 2.21L63.31 11.48L67.21 11.48C69.43 11.48 71.47 9.74 71.47 6.85C71.47 3.95 69.43 2.21 67.21 2.21ZM67.17 10.49L64.36 10.49L64.36 3.21L67.17 3.21C69.15 3.21 70.42 4.86 70.42 6.85C70.42 8.83 69.15 10.49 67.17 10.49ZM86.98 3.22L86.98 2.21L80.16 2.21L80.16 11.48L86.98 11.48L86.98 10.47L81.21 10.47L81.21 7.35L86.37 7.35L86.37 6.33L81.21 6.33L81.21 3.22ZM102.14 2.21L98.94 10.29L95.73 2.21L94.58 2.21L98.34 11.48L99.54 11.48L103.29 2.21ZM118.29 3.22L118.29 2.21L111.47 2.21L111.47 11.48L118.29 11.48L118.29 10.47L112.52 10.47L112.52 7.35L117.67 7.35L117.67 6.33L112.52 6.33L112.52 3.22ZM126.98 2.21L126.98 11.48L133.08 11.48L133.08 10.47L128.03 10.47L128.03 2.21ZM145.15 2.10C142.34 2.10 140.45 4.21 140.45 6.85C140.45 9.48 142.34 11.59 145.15 11.59C147.97 11.59 149.86 9.48 149.86 6.85C149.86 4.21 147.97 2.10 145.15 2.10ZM145.15 10.57C142.90 10.57 141.50 8.93 141.50 6.85C141.50 4.76 142.90 3.12 145.15 3.12C147.41 3.12 148.81 4.76 148.81 6.85C148.81 8.93 147.41 10.57 145.15 10.57ZM159.59 8.18L162.71 8.18C164.68 8.18 165.90 7.03 165.90 5.19C165.90 3.37 164.68 2.21 162.71 2.21L158.54 2.21L158.54 11.48L159.59 11.48ZM162.64 3.21C164.09 3.21 164.85 3.96 164.85 5.19C164.85 6.44 164.09 7.20 162.64 7.20L159.59 7.20L159.59 3.21ZM182.13 2.21L178.86 6.61L175.55 2.21L174.33 2.21L174.33 11.48L175.38 11.48L175.38 3.81L178.86 8.22L182.29 3.81L182.29 11.48L183.34 11.48L183.34 2.21ZM199.43 3.22L199.43 2.21L192.61 2.21L192.61 11.48L199.43 11.48L199.43 10.47L193.66 10.47L193.66 7.35L198.81 7.35L198.81 6.33L193.66 6.33L193.66 3.22ZM215.07 2.21L215.07 10.01L209.34 2.21L208.12 2.21L208.12 11.48L209.17 11.48L209.17 3.65L214.90 11.48L216.12 11.48L216.12 2.21ZM231.97 2.21L224.45 2.21L224.45 3.22L227.68 3.22L227.68 11.48L228.73 11.48L228.73 3.22L231.97 3.22Z"></path></g></svg>